<svg version="1.1" viewBox="0.0 0.0 1152.0 864.0" fill="none" stroke="none" stroke-linecap="square" stroke-miterlimit="10" xmlns:xlink="http://www.w3.org/1999/xlink" xmlns="http://www.w3.org/2000/svg"><clipPath id="p.0"><path d="m0 0l1152.0 0l0 864.0l-1152.0 0l0 -864.0z" clip-rule="nonzero"/></clipPath><g clip-path="url(#p.0)"><path fill="#000000" fill-opacity="0.0" d="m0 0l1152.0 0l0 864.0l-1152.0 0z" fill-rule="evenodd"/><path fill="#cfe2f3" d="m408.88715 311.63312l0 0c0 -15.493286 12.559784 -28.05307 28.05304 -28.05307l287.6734 0c7.4401855 0 14.575562 2.955597 19.836548 8.216553c5.2609253 5.260956 8.216553 12.396362 8.216553 19.836517l0 112.20883c0 15.493286 -12.559814 28.05307 -28.0531 28.05307l-287.6734 0c-15.493256 0 -28.05304 -12.559784 -28.05304 -28.05307z" fill-rule="evenodd"/><path stroke="#000000" stroke-width="1.0" stroke-linejoin="round" stroke-linecap="butt" d="m408.88715 311.63312l0 0c0 -15.493286 12.559784 -28.05307 28.05304 -28.05307l287.6734 0c7.4401855 0 14.575562 2.955597 19.836548 8.216553c5.2609253 5.260956 8.216553 12.396362 8.216553 19.836517l0 112.20883c0 15.493286 -12.559814 28.05307 -28.0531 28.05307l-287.6734 0c-15.493256 0 -28.05304 -12.559784 -28.05304 -28.05307z" fill-rule="evenodd"/><path fill="#ff0000" d="m506.4278 335.62814l8.28125 0q3.34375 0 5.375 2.078125q2.046875 2.0625 2.046875 5.640625q0 3.5625 -2.125 5.625q-2.109375 2.0625 -5.5625 2.0625l-4.140625 0l0 8.703125l-3.875 0l0 -24.109375zm7.953125 11.96875q1.9375 0 2.90625 -1.03125q0.96875 -1.046875 0.96875 -3.21875q0 -2.15625 -0.96875 -3.203125q-0.96875 -1.0625 -2.90625 -1.0625l-4.078125 0l0 8.515625l4.078125 0zm9.84613 12.140625l0 -24.109375l3.859375 0l0 20.671875l10.234375 0l0 3.4375l-14.09375 0zm30.19226 0l-2.328125 -6.359375l-8.453125 0l-2.09375 6.359375l-3.96875 0l8.546875 -24.109375l3.296875 0l8.796875 24.109375l-3.796875 0zm-9.546875 -9.8125l5.953125 0l-3.078125 -8.3125l-2.875 8.3125zm17.746948 9.8125l0 -20.65625l-7.171875 0l0 -3.453125l18.171875 0l0 3.453125l-7.171875 0l0 20.65625l-3.828125 0zm12.76593 0l0 -24.109375l13.765625 0l0 3.484375l-9.90625 0l0 6.546875l7.34375 0l0 3.40625l-7.34375 0l0 10.671875l-3.859375 0zm24.67157 0.53125q-3.046875 0 -5.4375 -1.625q-2.375 -1.640625 -3.703125 -4.484375q-1.3125 -2.859375 -1.3125 -6.4375q0 -3.59375 1.3125 -6.453125q1.328125 -2.875 3.703125 -4.5q2.390625 -1.640625 5.4375 -1.640625q3.0625 0 5.4375 1.640625q2.375 1.625 3.6875 4.5q1.328125 2.859375 1.328125 6.484375q0 3.59375 -1.328125 6.421875q-1.3125 2.828125 -3.6875 4.46875q-2.375 1.625 -5.4375 1.625zm0 -3.671875q1.859375 0 3.328125 -1.09375q1.484375 -1.09375 2.34375 -3.125q0.875 -2.03125 0.875 -4.65625q0 -2.625 -0.875 -4.671875q-0.859375 -2.0625 -2.34375 -3.171875q-1.484375 -1.109375 -3.328125 -1.109375q-1.828125 0 -3.3125 1.109375q-1.484375 1.109375 -2.359375 3.171875q-0.875 2.046875 -0.875 4.671875q0 2.625 0.875 4.65625q0.875 2.03125 2.34375 3.125q1.484375 1.09375 3.328125 1.09375zm26.6026 3.140625l-5.765625 -10.03125l-3.421875 0l0 10.03125l-3.859375 0l0 -24.109375l8.28125 0q2.234375 0 3.96875 0.890625q1.734375 0.890625 2.65625 2.5q0.921875 1.609375 0.921875 3.671875q0 2.515625 -1.53125 4.3125q-1.515625 1.796875 -3.109375 2.203125l6.078125 10.53125l-4.21875 0zm-9.1875 -13.46875l4.078125 0q1.921875 0 2.90625 -0.96875q0.984375 -0.96875 0.984375 -2.609375q0 -1.65625 -0.984375 -2.625q-0.984375 -0.984375 -2.90625 -0.984375l-4.078125 0l0 7.1875zm35.095886 -10.640625l3.9375 0l0 24.109375l-3.84375 0l0 -15.421875l-6.453125 15.421875l-3.25 0l-6.109375 -15.21875l0 15.21875l-3.875 0l0 -24.109375l4.21875 0l7.515625 18.8125l7.859375 -18.8125z" fill-rule="nonzero"/><path fill="#cfe2f3" d="m768.9711 517.34686l0 0c0 -11.361908 9.210632 -20.57257 20.57257 -20.57257l189.09106 0c5.4561768 0 10.688904 2.16745 14.546997 6.025543c3.8580933 3.8581238 6.0255737 9.090851 6.0255737 14.547028l0 82.2879c0 11.361938 -9.210632 20.57257 -20.57257 20.57257l-189.09106 0c-11.361938 0 -20.57257 -9.210632 -20.57257 -20.57257z" fill-rule="evenodd"/><path stroke="#000000" stroke-width="1.0" stroke-linejoin="round" stroke-linecap="butt" d="m768.9711 517.34686l0 0c0 -11.361908 9.210632 -20.57257 20.57257 -20.57257l189.09106 0c5.4561768 0 10.688904 2.16745 14.546997 6.025543c3.8580933 3.8581238 6.0255737 9.090851 6.0255737 14.547028l0 82.2879c0 11.361938 -9.210632 20.57257 -20.57257 20.57257l-189.09106 0c-11.361938 0 -20.57257 -9.210632 -20.57257 -20.57257z" fill-rule="evenodd"/><path fill="#000000" d="m817.5095 570.4908l-5.765625 -10.03125l-4.5 0l0 10.03125l-2.484375 0l0 -22.734375l7.59375 0q2.0625 0 3.625 0.8125q1.578125 0.796875 2.40625 2.25q0.828125 1.4375 0.828125 3.3125q0 2.265625 -1.375 3.890625q-1.359375 1.609375 -3.625 2.171875l5.9375 10.296875l-2.640625 0zm-10.265625 -12.09375l4.765625 0q2.203125 0 3.390625 -1.171875q1.1875 -1.171875 1.1875 -3.09375q0 -1.9375 -1.1875 -3.109375q-1.1875 -1.1875 -3.390625 -1.1875l-4.765625 0l0 8.5625zm16.845886 12.09375l0 -22.734375l12.71875 0l0 2.109375l-10.234375 0l0 7.921875l8.0 0l0 2.03125l-8.0 0l0 8.609375l10.34375 0l0 2.0625l-12.828125 0zm25.217163 0.53125q-2.859375 0 -4.953125 -1.40625q-2.078125 -1.421875 -3.203125 -4.0625q-1.109375 -2.65625 -1.109375 -6.359375q0 -3.734375 1.078125 -6.40625q1.09375 -2.6875 3.109375 -4.109375q2.015625 -1.421875 4.78125 -1.421875q2.828125 0 4.84375 1.25q2.015625 1.25 3.15625 3.515625l-2.0 1.171875q-1.0625 -1.96875 -2.5 -2.8125q-1.4375 -0.859375 -3.5 -0.859375q-2.96875 0 -4.65625 2.5625q-1.671875 2.546875 -1.671875 7.078125q0 2.96875 0.765625 5.140625q0.765625 2.15625 2.1875 3.3125q1.4375 1.140625 3.34375 1.140625q2.359375 0 3.671875 -1.046875q1.328125 -1.046875 2.453125 -3.28125l2.109375 1.265625q-1.203125 2.59375 -3.1875 3.96875q-1.984375 1.359375 -4.71875 1.359375zm23.397827 -23.265625l2.296875 0l-7.359375 13.4375l0 9.296875l-2.46875 0l0 -9.40625l-7.296875 -13.328125l2.5 0l6.203125 11.34375l6.125 -11.34375zm12.896423 23.265625q-2.859375 0 -4.953125 -1.40625q-2.078125 -1.421875 -3.203125 -4.0625q-1.109375 -2.65625 -1.109375 -6.359375q0 -3.734375 1.078125 -6.40625q1.09375 -2.6875 3.109375 -4.109375q2.015625 -1.421875 4.78125 -1.421875q2.828125 0 4.84375 1.25q2.015625 1.25 3.15625 3.515625l-2.0 1.171875q-1.0625 -1.96875 -2.5 -2.8125q-1.4375 -0.859375 -3.5 -0.859375q-2.96875 0 -4.65625 2.5625q-1.671875 2.546875 -1.671875 7.078125q0 2.96875 0.765625 5.140625q0.765625 2.15625 2.1875 3.3125q1.4375 1.140625 3.34375 1.140625q2.359375 0 3.671875 -1.046875q1.328125 -1.046875 2.453125 -3.28125l2.109375 1.265625q-1.203125 2.59375 -3.1875 3.96875q-1.984375 1.359375 -4.71875 1.359375zm11.710327 -0.53125l0 -22.734375l2.484375 0l0 20.671875l10.234375 0l0 2.0625l-12.71875 0zm15.864136 0l0 -22.734375l12.71875 0l0 2.109375l-10.234375 0l0 7.921875l8.0 0l0 2.03125l-8.0 0l0 8.609375l10.34375 0l0 2.0625l-12.828125 0zm29.514038 0l-5.765625 -10.03125l-4.5 0l0 10.03125l-2.484375 0l0 -22.734375l7.59375 0q2.0625 0 3.625 0.8125q1.578125 0.796875 2.40625 2.25q0.828125 1.4375 0.828125 3.3125q0 2.265625 -1.375 3.890625q-1.359375 1.609375 -3.625 2.171875l5.9375 10.296875l-2.640625 0zm-10.265625 -12.09375l4.765625 0q2.203125 0 3.390625 -1.171875q1.1875 -1.171875 1.1875 -3.09375q0 -1.9375 -1.1875 -3.109375q-1.1875 -1.1875 -3.390625 -1.1875l-4.765625 0l0 8.5625zm24.439636 12.625q-2.5 0 -4.875 -1.25q-2.359375 -1.25 -3.921875 -3.375l2.03125 -1.8125q1.203125 1.90625 3.0625 3.03125q1.875 1.109375 4.03125 1.109375q2.375 0 3.59375 -1.046875q1.234375 -1.046875 1.234375 -2.859375q0 -1.953125 -1.3125 -3.0q-1.3125 -1.0625 -4.1875 -1.859375q-7.1875 -1.765625 -7.1875 -6.53125q0 -2.96875 1.921875 -4.5625q1.9375 -1.609375 5.375 -1.609375q2.5 0 4.484375 0.9375q1.984375 0.9375 3.546875 2.859375l-1.96875 1.671875q-1.203125 -1.625 -2.640625 -2.40625q-1.421875 -0.796875 -3.421875 -0.796875q-2.09375 0 -3.4375 0.984375q-1.328125 0.984375 -1.328125 2.6875q0 1.734375 1.234375 2.75q1.234375 1.015625 4.15625 1.71875q3.46875 0.9375 5.390625 2.578125q1.921875 1.625 1.921875 4.578125q0 1.84375 -0.9375 3.25q-0.9375 1.390625 -2.6875 2.171875q-1.75 0.78125 -4.078125 0.78125z" fill-rule="nonzero"/><path fill="#cfe2f3" d="m124.267715 517.34686l0 0c0 -11.361908 9.210663 -20.57257 20.572586 -20.57257l189.09103 0c5.4562073 0 10.688934 2.16745 14.547028 6.025543c3.8581238 3.8581238 6.0255737 9.090851 6.0255737 14.547028l0 82.2879c0 11.361938 -9.210663 20.57257 -20.572601 20.57257l-189.09103 0c-11.361923 0 -20.572586 -9.210632 -20.572586 -20.57257z" fill-rule="evenodd"/><path stroke="#000000" stroke-width="1.0" stroke-linejoin="round" stroke-linecap="butt" d="m124.267715 517.34686l0 0c0 -11.361908 9.210663 -20.57257 20.572586 -20.57257l189.09103 0c5.4562073 0 10.688934 2.16745 14.547028 6.025543c3.8581238 3.8581238 6.0255737 9.090851 6.0255737 14.547028l0 82.2879c0 11.361938 -9.210663 20.57257 -20.572601 20.57257l-189.09103 0c-11.361923 0 -20.572586 -9.210632 -20.572586 -20.57257z" fill-rule="evenodd"/><path fill="#000000" d="m214.39285 527.7564l2.359375 0l-6.0625 22.734375l-2.59375 0l-4.734375 -18.265625l-4.875 18.265625l-2.5625 0l-6.0625 -22.734375l2.5625 0l4.875 19.140625l5.0625 -19.140625l2.03125 0l5.09375 19.296875l4.90625 -19.296875zm18.528854 22.734375l-2.328125 -6.359375l-9.4375 0l-2.09375 6.359375l-2.5 0l8.0625 -22.734375l2.328125 0l8.296875 22.734375l-2.328125 0zm-11.0 -8.4375l7.90625 0l-4.078125 -11.03125l-3.828125 11.03125zm23.965668 8.96875q-2.5 0 -4.875 -1.25q-2.359375 -1.25 -3.921875 -3.375l2.03125 -1.8125q1.203125 1.90625 3.0625 3.03125q1.875 1.109375 4.03125 1.109375q2.375 0 3.59375 -1.046875q1.234375 -1.046875 1.234375 -2.859375q0 -1.953125 -1.3125 -3.0q-1.3125 -1.0625 -4.1875 -1.859375q-7.1875 -1.765625 -7.1875 -6.53125q0 -2.96875 1.921875 -4.5625q1.9375 -1.609375 5.375 -1.609375q2.5 0 4.484375 0.9375q1.984375 0.9375 3.546875 2.859375l-1.96875 1.671875q-1.203125 -1.625 -2.640625 -2.40625q-1.421875 -0.796875 -3.421875 -0.796875q-2.09375 0 -3.4375 0.984375q-1.328125 0.984375 -1.328125 2.6875q0 1.734375 1.234375 2.75q1.234375 1.015625 4.15625 1.71875q3.46875 0.9375 5.390625 2.578125q1.921875 1.625 1.921875 4.578125q0 1.84375 -0.9375 3.25q-0.9375 1.390625 -2.6875 2.171875q-1.75 0.78125 -4.078125 0.78125zm16.867752 -0.53125l0 -20.65625l-7.171875 0l0 -2.078125l16.796875 0l0 2.078125l-7.171875 0l0 20.65625l-2.453125 0zm12.76593 0l0 -22.734375l12.71875 0l0 2.109375l-10.234375 0l0 7.921875l8.0 0l0 2.03125l-8.0 0l0 8.609375l10.34375 0l0 2.0625l-12.828125 0z" fill-rule="nonzero"/><path fill="#000000" d="m155.4281 591.0221q-2.859375 0 -4.953125 -1.40625q-2.078125 -1.421875 -3.203125 -4.0625q-1.109375 -2.65625 -1.109375 -6.359375q0 -3.734375 1.078125 -6.40625q1.09375 -2.6875 3.109375 -4.109375q2.015625 -1.421875 4.78125 -1.421875q2.828125 0 4.84375 1.25q2.015625 1.25 3.15625 3.515625l-2.0 1.171875q-1.0625 -1.96875 -2.5 -2.8125q-1.4375 -0.859375 -3.5 -0.859375q-2.96875 0 -4.65625 2.5625q-1.671875 2.546875 -1.671875 7.078125q0 2.96875 0.765625 5.140625q0.765625 2.15625 2.1875 3.3125q1.4375 1.140625 3.34375 1.140625q2.359375 0 3.671875 -1.046875q1.328125 -1.046875 2.453125 -3.28125l2.109375 1.265625q-1.203125 2.59375 -3.1875 3.96875q-1.984375 1.359375 -4.71875 1.359375zm20.663467 0q-2.828125 0 -5.046875 -1.515625q-2.21875 -1.515625 -3.46875 -4.21875q-1.25 -2.703125 -1.25 -6.125q0 -3.4375 1.25 -6.15625q1.25 -2.71875 3.46875 -4.234375q2.21875 -1.515625 5.046875 -1.515625q2.84375 0 5.046875 1.515625q2.21875 1.515625 3.46875 4.234375q1.25 2.71875 1.25 6.1875q0 3.4375 -1.25 6.125q-1.25 2.671875 -3.46875 4.1875q-2.203125 1.515625 -5.046875 1.515625zm0 -2.296875q2.078125 0 3.71875 -1.21875q1.65625 -1.21875 2.578125 -3.390625q0.9375 -2.1875 0.9375 -4.953125q0 -2.765625 -0.9375 -4.96875q-0.921875 -2.203125 -2.578125 -3.4375q-1.640625 -1.234375 -3.71875 -1.234375q-2.0625 0 -3.71875 1.234375q-1.640625 1.234375 -2.578125 3.4375q-0.9375 2.203125 -0.9375 4.96875q0 2.765625 0.9375 4.953125q0.9375 2.171875 2.578125 3.390625q1.65625 1.21875 3.71875 1.21875zm14.24321 1.765625l0 -22.734375l2.484375 0l0 20.671875l10.234375 0l0 2.0625l-12.71875 0zm15.864151 0l0 -22.734375l2.484375 0l0 20.671875l10.234375 0l0 2.0625l-12.71875 0zm15.864151 0l0 -22.734375l12.71875 0l0 2.109375l-10.234375 0l0 7.921875l8.0 0l0 2.03125l-8.0 0l0 8.609375l10.34375 0l0 2.0625l-12.828125 0zm25.217133 0.53125q-2.859375 0 -4.953125 -1.40625q-2.078125 -1.421875 -3.203125 -4.0625q-1.109375 -2.65625 -1.109375 -6.359375q0 -3.734375 1.078125 -6.40625q1.09375 -2.6875 3.109375 -4.109375q2.015625 -1.421875 4.78125 -1.421875q2.828125 0 4.84375 1.25q2.015625 1.25 3.15625 3.515625l-2.0 1.171875q-1.0625 -1.96875 -2.5 -2.8125q-1.4375 -0.859375 -3.5 -0.859375q-2.96875 0 -4.65625 2.5625q-1.671875 2.546875 -1.671875 7.078125q0 2.96875 0.765625 5.140625q0.765625 2.15625 2.1875 3.3125q1.4375 1.140625 3.34375 1.140625q2.359375 0 3.671875 -1.046875q1.328125 -1.046875 2.453125 -3.28125l2.109375 1.265625q-1.203125 2.59375 -3.1875 3.96875q-1.984375 1.359375 -4.71875 1.359375zm16.741577 -0.53125l0 -20.65625l-7.1718445 0l0 -2.078125l16.796844 0l0 2.078125l-7.171875 0l0 20.65625l-2.453125 0zm20.052399 0.53125q-2.828125 0 -5.046875 -1.515625q-2.21875 -1.515625 -3.46875 -4.21875q-1.25 -2.703125 -1.25 -6.125q0 -3.4375 1.25 -6.15625q1.25 -2.71875 3.46875 -4.234375q2.21875 -1.515625 5.046875 -1.515625q2.84375 0 5.046875 1.515625q2.21875 1.515625 3.46875 4.234375q1.25 2.71875 1.25 6.1875q0 3.4375 -1.25 6.125q-1.25 2.671875 -3.46875 4.1875q-2.203125 1.515625 -5.046875 1.515625zm0 -2.296875q2.078125 0 3.71875 -1.21875q1.65625 -1.21875 2.578125 -3.390625q0.9375 -2.1875 0.9375 -4.953125q0 -2.765625 -0.9375 -4.96875q-0.921875 -2.203125 -2.578125 -3.4375q-1.640625 -1.234375 -3.71875 -1.234375q-2.0625 0 -3.71875 1.234375q-1.640625 1.234375 -2.578125 3.4375q-0.9375 2.203125 -0.9375 4.96875q0 2.765625 0.9375 4.953125q0.9375 2.171875 2.578125 3.390625q1.65625 1.21875 3.71875 1.21875zm26.993195 1.765625l-5.765625 -10.03125l-4.5 0l0 10.03125l-2.484375 0l0 -22.734375l7.59375 0q2.0625 0 3.625 0.8125q1.578125 0.796875 2.40625 2.25q0.828125 1.4375 0.828125 3.3125q0 2.265625 -1.375 3.890625q-1.359375 1.609375 -3.625 2.171875l5.9375 10.296875l-2.640625 0zm-10.265625 -12.09375l4.765625 0q2.203125 0 3.390625 -1.171875q1.1875 -1.171875 1.1875 -3.09375q0 -1.9375 -1.1875 -3.109375q-1.1875 -1.1875 -3.390625 -1.1875l-4.765625 0l0 8.5625zm24.439667 12.625q-2.5 0 -4.875 -1.25q-2.359375 -1.25 -3.921875 -3.375l2.03125 -1.8125q1.203125 1.90625 3.0625 3.03125q1.875 1.109375 4.03125 1.109375q2.375 0 3.59375 -1.046875q1.234375 -1.046875 1.234375 -2.859375q0 -1.953125 -1.3125 -3.0q-1.3125 -1.0625 -4.1875 -1.859375q-7.1875 -1.765625 -7.1875 -6.53125q0 -2.96875 1.921875 -4.5625q1.9375 -1.609375 5.375 -1.609375q2.5 0 4.484375 0.9375q1.984375 0.9375 3.546875 2.859375l-1.96875 1.671875q-1.203125 -1.625 -2.640625 -2.40625q-1.421875 -0.796875 -3.421875 -0.796875q-2.09375 0 -3.4375 0.984375q-1.328125 0.984375 -1.328125 2.6875q0 1.734375 1.234375 2.75q1.234375 1.015625 4.15625 1.71875q3.46875 0.9375 5.390625 2.578125q1.921875 1.625 1.921875 4.578125q0 1.84375 -0.9375 3.25q-0.9375 1.390625 -2.6875 2.171875q-1.75 0.78125 -4.078125 0.78125z" fill-rule="nonzero"/><path fill="#cfe2f3" d="m460.59055 133.4781l0 0c0 -11.361931 9.210663 -20.572594 20.572601 -20.572594l189.09106 0c5.4561768 0 10.688904 2.1674652 14.546997 6.0255737c3.8580933 3.8581085 6.0255737 9.090828 6.0255737 14.54702l0 82.28789c0 11.361923 -9.210693 20.572586 -20.57257 20.572586l-189.09106 0c-11.361938 0 -20.572601 -9.210663 -20.572601 -20.572586z" fill-rule="evenodd"/><path stroke="#000000" stroke-width="1.0" stroke-linejoin="round" stroke-linecap="butt" d="m460.59055 133.4781l0 0c0 -11.361931 9.210663 -20.572594 20.572601 -20.572594l189.09106 0c5.4561768 0 10.688904 2.1674652 14.546997 6.0255737c3.8580933 3.8581085 6.0255737 9.090828 6.0255737 14.54702l0 82.28789c0 11.361923 -9.210693 20.572586 -20.57257 20.572586l-189.09106 0c-11.361938 0 -20.572601 -9.210663 -20.572601 -20.572586z" fill-rule="evenodd"/><path fill="#000000" d="m491.86743 187.15329q-2.859375 0 -4.953125 -1.40625q-2.078125 -1.421875 -3.203125 -4.0625q-1.109375 -2.65625 -1.109375 -6.359375q0 -3.734375 1.078125 -6.40625q1.09375 -2.6875 3.109375 -4.109375q2.015625 -1.421875 4.78125 -1.421875q2.828125 0 4.84375 1.25q2.015625 1.25 3.15625 3.515625l-2.0 1.171875q-1.0625 -1.96875 -2.5 -2.8125q-1.4375 -0.859375 -3.5 -0.859375q-2.96875 0 -4.65625 2.5625q-1.671875 2.546875 -1.671875 7.078125q0 2.96875 0.765625 5.140625q0.765625 2.15625 2.1875 3.3125q1.4375 1.140625 3.34375 1.140625q2.359375 0 3.671875 -1.046875q1.328125 -1.046875 2.453125 -3.28125l2.109375 1.265625q-1.203125 2.59375 -3.1875 3.96875q-1.984375 1.359375 -4.71875 1.359375zm20.663452 0q-2.8280945 0 -5.0468445 -1.515625q-2.21875 -1.515625 -3.46875 -4.21875q-1.25 -2.703125 -1.25 -6.125q0 -3.4375 1.25 -6.15625q1.25 -2.71875 3.46875 -4.234375q2.21875 -1.515625 5.0468445 -1.515625q2.84375 0 5.046875 1.515625q2.21875 1.515625 3.46875 4.234375q1.25 2.71875 1.25 6.1875q0 3.4375 -1.25 6.125q-1.25 2.671875 -3.46875 4.1875q-2.203125 1.515625 -5.046875 1.515625zm0 -2.296875q2.078125 0 3.71875 -1.21875q1.65625 -1.21875 2.578125 -3.390625q0.9375 -2.1875 0.9375 -4.953125q0 -2.765625 -0.9375 -4.96875q-0.921875 -2.203125 -2.578125 -3.4375q-1.640625 -1.234375 -3.71875 -1.234375q-2.0624695 0 -3.7187195 1.234375q-1.640625 1.234375 -2.578125 3.4375q-0.9375 2.203125 -0.9375 4.96875q0 2.765625 0.9375 4.953125q0.9375 2.171875 2.578125 3.390625q1.65625 1.21875 3.7187195 1.21875zm14.274475 1.765625l0 -22.734375l2.65625 0l11.5625 18.96875l0 -18.96875l2.5 0l0 22.734375l-2.65625 0l-11.5625 -18.890625l0 18.890625l-2.5 0zm29.625671 0.53125q-2.5 0 -4.875 -1.25q-2.359375 -1.25 -3.921875 -3.375l2.03125 -1.8125q1.203125 1.90625 3.0625 3.03125q1.875 1.109375 4.03125 1.109375q2.375 0 3.59375 -1.046875q1.234375 -1.046875 1.234375 -2.859375q0 -1.953125 -1.3125 -3.0q-1.3125 -1.0625 -4.1875 -1.859375q-7.1875 -1.765625 -7.1875 -6.53125q0 -2.96875 1.921875 -4.5625q1.9375 -1.609375 5.375 -1.609375q2.5 0 4.484375 0.9375q1.984375 0.9375 3.546875 2.859375l-1.96875 1.671875q-1.203125 -1.625 -2.640625 -2.40625q-1.421875 -0.796875 -3.421875 -0.796875q-2.09375 0 -3.4375 0.984375q-1.328125 0.984375 -1.328125 2.6875q0 1.734375 1.234375 2.75q1.234375 1.015625 4.15625 1.71875q3.46875 0.9375 5.390625 2.578125q1.921875 1.625 1.921875 4.578125q0 1.84375 -0.9375 3.25q-0.9375 1.390625 -2.6875 2.171875q-1.75 0.78125 -4.078125 0.78125zm20.258362 0q-4.203125 0 -6.296875 -2.28125q-2.09375 -2.28125 -2.09375 -6.6875l0 -14.296875l2.5 0l0 14.296875q0 6.703125 5.890625 6.703125q2.671875 0 4.21875 -1.734375q1.546875 -1.734375 1.546875 -4.96875l0 -14.296875l2.5 0l0 14.296875q0 4.34375 -2.1875 6.65625q-2.171875 2.3125 -6.078125 2.3125zm32.96527 -23.265625l2.796875 0l0 22.734375l-2.46875 0l0 -18.15625l-7.59375 18.15625l-2.328125 0l-7.265625 -18.09375l0 18.09375l-2.5 0l0 -22.734375l3.0625 0l7.96875 19.9375l8.328125 -19.9375zm8.1050415 22.734375l0 -22.734375l12.71875 0l0 2.109375l-10.234375 0l0 7.921875l8.0 0l0 2.03125l-8.0 0l0 8.609375l10.34375 0l0 2.0625l-12.828125 0zm29.514038 0l-5.765625 -10.03125l-4.5 0l0 10.03125l-2.484375 0l0 -22.734375l7.59375 0q2.0625 0 3.625 0.8125q1.578125 0.796875 2.40625 2.25q0.828125 1.4375 0.828125 3.3125q0 2.265625 -1.375 3.890625q-1.359375 1.609375 -3.625 2.171875l5.9375 10.296875l-2.640625 0zm-10.265625 -12.09375l4.765625 0q2.203125 0 3.390625 -1.171875q1.1875 -1.171875 1.1875 -3.09375q0 -1.9375 -1.1875 -3.109375q-1.1875 -1.1875 -3.390625 -1.1875l-4.765625 0l0 8.5625zm24.439636 12.625q-2.5 0 -4.875 -1.25q-2.359375 -1.25 -3.921875 -3.375l2.03125 -1.8125q1.203125 1.90625 3.0625 3.03125q1.875 1.109375 4.03125 1.109375q2.375 0 3.59375 -1.046875q1.234375 -1.046875 1.234375 -2.859375q0 -1.953125 -1.3125 -3.0q-1.3125 -1.0625 -4.1875 -1.859375q-7.1875 -1.765625 -7.1875 -6.53125q0 -2.96875 1.921875 -4.5625q1.9375 -1.609375 5.375 -1.609375q2.5 0 4.484375 0.9375q1.984375 0.9375 3.546875 2.859375l-1.96875 1.671875q-1.203125 -1.625 -2.640625 -2.40625q-1.421875 -0.796875 -3.421875 -0.796875q-2.09375 0 -3.4375 0.984375q-1.328125 0.984375 -1.328125 2.6875q0 1.734375 1.234375 2.75q1.234375 1.015625 4.15625 1.71875q3.46875 0.9375 5.390625 2.578125q1.921875 1.625 1.921875 4.578125q0 1.84375 -0.9375 3.25q-0.9375 1.390625 -2.6875 2.171875q-1.75 0.78125 -4.078125 0.78125z" fill-rule="nonzero"/><path fill="#cfe2f3" d="m877.80054 326.5936l0 0c0 -11.361938 9.210632 -20.572601 20.57257 -20.572601l189.091 0c5.4561768 0 10.688965 2.16745 14.547119 6.0255737c3.8580322 3.8581238 6.0255127 9.09082 6.0255127 14.547028l0 82.28787c0 11.361938 -9.210693 20.572601 -20.572632 20.572601l-189.091 0c-11.361938 0 -20.57257 -9.210663 -20.57257 -20.572601z" fill-rule="evenodd"/><path stroke="#000000" stroke-width="1.0" stroke-linejoin="round" stroke-linecap="butt" d="m877.80054 326.5936l0 0c0 -11.361938 9.210632 -20.572601 20.57257 -20.572601l189.091 0c5.4561768 0 10.688965 2.16745 14.547119 6.0255737c3.8580322 3.8581238 6.0255127 9.09082 6.0255127 14.547028l0 82.28787c0 11.361938 -9.210693 20.572601 -20.572632 20.572601l-189.091 0c-11.361938 0 -20.57257 -9.210663 -20.57257 -20.572601z" fill-rule="evenodd"/><path fill="#000000" d="m908.7275 360.26877q-2.859375 0 -4.953125 -1.40625q-2.078125 -1.421875 -3.203125 -4.0625q-1.109375 -2.65625 -1.109375 -6.359375q0 -3.734375 1.078125 -6.40625q1.09375 -2.6875 3.109375 -4.109375q2.015625 -1.421875 4.78125 -1.421875q2.828125 0 4.84375 1.25q2.015625 1.25 3.15625 3.515625l-2.0 1.171875q-1.0625 -1.96875 -2.5 -2.8125q-1.4375 -0.859375 -3.5 -0.859375q-2.96875 0 -4.65625 2.5625q-1.671875 2.546875 -1.671875 7.078125q0 2.96875 0.765625 5.140625q0.765625 2.15625 2.1875 3.3125q1.4375 1.140625 3.34375 1.140625q2.359375 0 3.671875 -1.046875q1.328125 -1.046875 2.453125 -3.28125l2.109375 1.265625q-1.203125 2.59375 -3.1875 3.96875q-1.984375 1.359375 -4.71875 1.359375zm20.663452 0q-2.828125 0 -5.046875 -1.515625q-2.21875 -1.515625 -3.46875 -4.21875q-1.25 -2.703125 -1.25 -6.125q0 -3.4375 1.25 -6.15625q1.25 -2.71875 3.46875 -4.234375q2.21875 -1.515625 5.046875 -1.515625q2.84375 0 5.046875 1.515625q2.21875 1.515625 3.46875 4.234375q1.25 2.71875 1.25 6.1875q0 3.4375 -1.25 6.125q-1.25 2.671875 -3.46875 4.1875q-2.203125 1.515625 -5.046875 1.515625zm0 -2.296875q2.078125 0 3.71875 -1.21875q1.65625 -1.21875 2.578125 -3.390625q0.9375 -2.1875 0.9375 -4.953125q0 -2.765625 -0.9375 -4.96875q-0.921875 -2.203125 -2.578125 -3.4375q-1.640625 -1.234375 -3.71875 -1.234375q-2.0625 0 -3.71875 1.234375q-1.640625 1.234375 -2.578125 3.4375q-0.9375 2.203125 -0.9375 4.96875q0 2.765625 0.9375 4.953125q0.9375 2.171875 2.578125 3.390625q1.65625 1.21875 3.71875 1.21875zm33.63385 -20.96875l2.796875 0l0 22.734375l-2.46875 0l0 -18.15625l-7.59375 18.15625l-2.328125 0l-7.265625 -18.09375l0 18.09375l-2.5 0l0 -22.734375l3.0625 0l7.96875 19.9375l8.328125 -19.9375zm8.1362915 0l7.59375 0q3.0625 0 4.890625 1.875q1.84375 1.859375 1.84375 5.15625q0 3.265625 -1.921875 5.140625q-1.90625 1.859375 -5.078125 1.859375l-4.828125 0l0 8.703125l-2.5 0l0 -22.734375zm7.265625 11.96875q2.234375 0 3.390625 -1.25q1.171875 -1.25 1.171875 -3.6875q0 -2.421875 -1.171875 -3.6875q-1.15625 -1.265625 -3.390625 -1.265625l-4.765625 0l0 9.890625l4.765625 0zm19.486755 11.296875q-2.828125 0 -5.046875 -1.515625q-2.21875 -1.515625 -3.46875 -4.21875q-1.25 -2.703125 -1.25 -6.125q0 -3.4375 1.25 -6.15625q1.25 -2.71875 3.46875 -4.234375q2.21875 -1.515625 5.046875 -1.515625q2.84375 0 5.046875 1.515625q2.21875 1.515625 3.46875 4.234375q1.25 2.71875 1.25 6.1875q0 3.4375 -1.25 6.125q-1.25 2.671875 -3.46875 4.1875q-2.203125 1.515625 -5.046875 1.515625zm0 -2.296875q2.078125 0 3.71875 -1.21875q1.65625 -1.21875 2.578125 -3.390625q0.9375 -2.1875 0.9375 -4.953125q0 -2.765625 -0.9375 -4.96875q-0.921875 -2.203125 -2.578125 -3.4375q-1.640625 -1.234375 -3.71875 -1.234375q-2.0625 0 -3.71875 1.234375q-1.640625 1.234375 -2.578125 3.4375q-0.9375 2.203125 -0.9375 4.96875q0 2.765625 0.9375 4.953125q0.9375 2.171875 2.578125 3.390625q1.65625 1.21875 3.71875 1.21875zm14.274414 1.765625l0 -22.734375l2.65625 0l11.5625 18.96875l0 -18.96875l2.5 0l0 22.734375l-2.65625 0l-11.5625 -18.890625l0 18.890625l-2.5 0zm22.031982 0l0 -22.734375l12.71875 0l0 2.109375l-10.234375 0l0 7.921875l8.0 0l0 2.03125l-8.0 0l0 8.609375l10.34375 0l0 2.0625l-12.828125 0zm16.795166 0l0 -22.734375l2.65625 0l11.5625 18.96875l0 -18.96875l2.5 0l0 22.734375l-2.65625 0l-11.5625 -18.890625l0 18.890625l-2.5 0zm27.063232 0l0 -20.65625l-7.171875 0l0 -2.078125l16.796875 0l0 2.078125l-7.171875 0l0 20.65625l-2.453125 0z" fill-rule="nonzero"/><path fill="#000000" d="m923.63226 400.2688q-2.5 0 -4.875 -1.25q-2.359375 -1.25 -3.921875 -3.375l2.03125 -1.8125q1.203125 1.90625 3.0625 3.03125q1.875 1.109375 4.03125 1.109375q2.375 0 3.59375 -1.046875q1.234375 -1.046875 1.234375 -2.859375q0 -1.953125 -1.3125 -3.0q-1.3125 -1.0625 -4.1875 -1.859375q-7.1875 -1.765625 -7.1875 -6.53125q0 -2.96875 1.921875 -4.5625q1.9375 -1.609375 5.375 -1.609375q2.5 0 4.484375 0.9375q1.984375 0.9375 3.546875 2.859375l-1.96875 1.671875q-1.203125 -1.625 -2.640625 -2.40625q-1.421875 -0.796875 -3.421875 -0.796875q-2.09375 0 -3.4375 0.984375q-1.328125 0.984375 -1.328125 2.6875q0 1.734375 1.234375 2.75q1.234375 1.015625 4.15625 1.71875q3.46875 0.9375 5.390625 2.578125q1.921875 1.625 1.921875 4.578125q0 1.84375 -0.9375 3.25q-0.9375 1.390625 -2.6875 2.171875q-1.75 0.78125 -4.078125 0.78125zm20.258423 0q-4.203125 0 -6.296875 -2.28125q-2.09375 -2.28125 -2.09375 -6.6875l0 -14.296875l2.5 0l0 14.296875q0 6.703125 5.890625 6.703125q2.671875 0 4.21875 -1.734375q1.546875 -1.734375 1.546875 -4.96875l0 -14.296875l2.5 0l0 14.296875q0 4.34375 -2.1875 6.65625q-2.171875 2.3125 -6.078125 2.3125zm13.605896 -23.265625l7.59375 0q3.0625 0 4.890625 1.875q1.84375 1.859375 1.84375 5.15625q0 3.265625 -1.921875 5.140625q-1.90625 1.859375 -5.078125 1.859375l-4.828125 0l0 8.703125l-2.5 0l0 -22.734375zm7.265625 11.96875q2.234375 0 3.390625 -1.25q1.171875 -1.25 1.171875 -3.6875q0 -2.421875 -1.171875 -3.6875q-1.15625 -1.265625 -3.390625 -1.265625l-4.765625 0l0 9.890625l4.765625 0zm10.56488 -11.96875l7.59375 0q3.0625 0 4.890625 1.875q1.84375 1.859375 1.84375 5.15625q0 3.265625 -1.921875 5.140625q-1.90625 1.859375 -5.078125 1.859375l-4.828125 0l0 8.703125l-2.5 0l0 -22.734375zm7.265625 11.96875q2.234375 0 3.390625 -1.25q1.171875 -1.25 1.171875 -3.6875q0 -2.421875 -1.171875 -3.6875q-1.15625 -1.265625 -3.390625 -1.265625l-4.765625 0l0 9.890625l4.765625 0zm10.53363 10.765625l0 -22.734375l2.484375 0l0 20.671875l10.234375 0l0 2.0625l-12.71875 0zm15.051636 0l0 -2.203125l2.203125 0l0 -18.328125l-2.203125 0l0 -2.203125l6.90625 0l0 2.203125l-2.203125 0l0 18.328125l2.203125 0l0 2.203125l-6.90625 0zm11.377502 0l0 -22.734375l12.718689 0l0 2.109375l-10.234314 0l0 7.921875l7.999939 0l0 2.03125l-7.999939 0l0 8.609375l10.343689 0l0 2.0625l-12.828064 0zm29.513977 0l-5.765625 -10.03125l-4.5 0l0 10.03125l-2.484375 0l0 -22.734375l7.59375 0q2.0625 0 3.625 0.8125q1.578125 0.796875 2.40625 2.25q0.828125 1.4375 0.828125 3.3125q0 2.265625 -1.375 3.890625q-1.359375 1.609375 -3.625 2.171875l5.9375 10.296875l-2.640625 0zm-10.265625 -12.09375l4.765625 0q2.203125 0 3.390625 -1.171875q1.1875 -1.171875 1.1875 -3.09375q0 -1.9375 -1.1875 -3.109375q-1.1875 -1.1875 -3.390625 -1.1875l-4.765625 0l0 8.5625zm24.439697 12.625q-2.5 0 -4.875 -1.25q-2.359375 -1.25 -3.921875 -3.375l2.03125 -1.8125q1.203125 1.90625 3.0625 3.03125q1.875 1.109375 4.03125 1.109375q2.375 0 3.59375 -1.046875q1.234375 -1.046875 1.234375 -2.859375q0 -1.953125 -1.3125 -3.0q-1.3125 -1.0625 -4.1875 -1.859375q-7.1875 -1.765625 -7.1875 -6.53125q0 -2.96875 1.921875 -4.5625q1.9375 -1.609375 5.375 -1.609375q2.5 0 4.484375 0.9375q1.984375 0.9375 3.546875 2.859375l-1.96875 1.671875q-1.203125 -1.625 -2.640625 -2.40625q-1.421875 -0.796875 -3.421875 -0.796875q-2.09375 0 -3.4375 0.984375q-1.328125 0.984375 -1.328125 2.6875q0 1.734375 1.234375 2.75q1.234375 1.015625 4.15625 1.71875q3.46875 0.9375 5.390625 2.578125q1.921875 1.625 1.921875 4.578125q0 1.84375 -0.9375 3.25q-0.9375 1.390625 -2.6875 2.171875q-1.75 0.78125 -4.078125 0.78125z" fill-rule="nonzero"/><path fill="#cfe2f3" d="m68.56431 310.65134l0 0c0 -11.361938 9.210655 -20.572601 20.572586 -20.572601l189.09103 0c5.4561768 0 10.688904 2.1674805 14.547028 6.0255737c3.8580933 3.8581238 6.0255737 9.09082 6.0255737 14.547028l0 82.28787c0 11.361938 -9.210663 20.572601 -20.572601 20.572601l-189.09103 0c-11.361931 0 -20.572586 -9.210663 -20.572586 -20.572601z" fill-rule="evenodd"/><path stroke="#000000" stroke-width="1.0" stroke-linejoin="round" stroke-linecap="butt" d="m68.56431 310.65134l0 0c0 -11.361938 9.210655 -20.572601 20.572586 -20.572601l189.09103 0c5.4561768 0 10.688904 2.1674805 14.547028 6.0255737c3.8580933 3.8581238 6.0255737 9.09082 6.0255737 14.547028l0 82.28787c0 11.361938 -9.210663 20.572601 -20.572601 20.572601l-189.09103 0c-11.361931 0 -20.572586 -9.210663 -20.572586 -20.572601z" fill-rule="evenodd"/><path fill="#000000" d="m115.51551 321.0609l7.59375 0q3.0625 0 4.890625 1.875q1.8437424 1.859375 1.8437424 5.15625q0 3.265625 -1.9218674 5.140625q-1.90625 1.859375 -5.078125 1.859375l-4.828125 0l0 8.703125l-2.5 0l0 -22.734375zm7.265625 11.96875q2.234375 0 3.390625 -1.25q1.171875 -1.25 1.171875 -3.6875q0 -2.421875 -1.171875 -3.6875q-1.15625 -1.265625 -3.390625 -1.265625l-4.765625 0l0 9.890625l4.765625 0zm23.283623 10.765625l-5.765625 -10.03125l-4.5 0l0 10.03125l-2.484375 0l0 -22.734375l7.59375 0q2.0625 0 3.625 0.8125q1.578125 0.796875 2.40625 2.25q0.828125 1.4375 0.828125 3.3125q0 2.265625 -1.375 3.890625q-1.359375 1.609375 -3.625 2.171875l5.9375 10.296875l-2.640625 0zm-10.265625 -12.09375l4.765625 0q2.203125 0 3.390625 -1.171875q1.1875 -1.171875 1.1875 -3.09375q0 -1.9375 -1.1875 -3.109375q-1.1875 -1.1875 -3.390625 -1.1875l-4.765625 0l0 8.5625zm25.799026 12.625q-2.828125 0 -5.046875 -1.515625q-2.21875 -1.515625 -3.46875 -4.21875q-1.25 -2.703125 -1.25 -6.125q0 -3.4375 1.25 -6.15625q1.25 -2.71875 3.46875 -4.234375q2.21875 -1.515625 5.046875 -1.515625q2.84375 0 5.046875 1.515625q2.21875 1.515625 3.46875 4.234375q1.25 2.71875 1.25 6.1875q0 3.4375 -1.25 6.125q-1.25 2.671875 -3.46875 4.1875q-2.203125 1.515625 -5.046875 1.515625zm0 -2.296875q2.078125 0 3.71875 -1.21875q1.65625 -1.21875 2.578125 -3.390625q0.9375 -2.1875 0.9375 -4.953125q0 -2.765625 -0.9375 -4.96875q-0.921875 -2.203125 -2.578125 -3.4375q-1.640625 -1.234375 -3.71875 -1.234375q-2.0625 0 -3.71875 1.234375q-1.640625 1.234375 -2.578125 3.4375q-0.9375 2.203125 -0.9375 4.96875q0 2.765625 0.9375 4.953125q0.9375 2.171875 2.578125 3.390625q1.65625 1.21875 3.71875 1.21875zm14.27446 -20.96875l5.625 0q3.5 0 6.03125 1.359375q2.53125 1.34375 3.859375 3.921875q1.34375 2.5625 1.34375 6.125q0 5.328125 -2.96875 8.328125q-2.96875 3.0 -8.265625 3.0l-5.625 0l0 -22.734375zm5.5625 20.46875q4.0625 0 6.359375 -2.234375q2.296875 -2.234375 2.296875 -6.828125q0 -4.640625 -2.296875 -6.875q-2.296875 -2.234375 -6.359375 -2.234375l-3.0625 0l0 18.171875l3.0625 0zm24.191406 2.796875q-4.203125 0 -6.296875 -2.28125q-2.09375 -2.28125 -2.09375 -6.6875l0 -14.296875l2.5 0l0 14.296875q0 6.703125 5.890625 6.703125q2.671875 0 4.21875 -1.734375q1.546875 -1.734375 1.546875 -4.96875l0 -14.296875l2.5 0l0 14.296875q0 4.34375 -2.1875 6.65625q-2.171875 2.3125 -6.078125 2.3125zm22.027771 0q-2.859375 0 -4.953125 -1.40625q-2.078125 -1.421875 -3.203125 -4.0625q-1.109375 -2.65625 -1.109375 -6.359375q0 -3.734375 1.078125 -6.40625q1.09375 -2.6875 3.109375 -4.109375q2.015625 -1.421875 4.78125 -1.421875q2.828125 0 4.84375 1.25q2.015625 1.25 3.15625 3.515625l-2.0 1.171875q-1.0625 -1.96875 -2.5 -2.8125q-1.4375 -0.859375 -3.5 -0.859375q-2.96875 0 -4.65625 2.5625q-1.671875 2.546875 -1.671875 7.078125q0 2.96875 0.765625 5.140625q0.765625 2.15625 2.1875 3.3125q1.4375 1.140625 3.34375 1.140625q2.359375 0 3.671875 -1.046875q1.328125 -1.046875 2.453125 -3.28125l2.109375 1.265625q-1.203125 2.59375 -3.1875 3.96875q-1.984375 1.359375 -4.71875 1.359375zm16.741608 -0.53125l0 -20.65625l-7.171875 0l0 -2.078125l16.796875 0l0 2.078125l-7.171875 0l0 20.65625l-2.453125 0z" fill-rule="nonzero"/><path fill="#000000" d="m96.65183 361.0609l7.59375 0q3.0625 0 4.890625 1.875q1.84375 1.859375 1.84375 5.15625q0 3.265625 -1.921875 5.140625q-1.90625 1.859375 -5.078125 1.859375l-4.828125 0l0 8.703125l-2.5 0l0 -22.734375zm7.265625 11.96875q2.234375 0 3.390625 -1.25q1.171875 -1.25 1.171875 -3.6875q0 -2.421875 -1.171875 -3.6875q-1.15625 -1.265625 -3.390625 -1.265625l-4.765625 0l0 9.890625l4.765625 0zm23.28363 10.765625l-5.765625 -10.03125l-4.5 0l0 10.03125l-2.484375 0l0 -22.734375l7.59375 0q2.0625 0 3.625 0.8125q1.578125 0.796875 2.4062424 2.25q0.828125 1.4375 0.828125 3.3125q0 2.265625 -1.3749924 3.890625q-1.359375 1.609375 -3.625 2.171875l5.9374924 10.296875l-2.6406174 0zm-10.265625 -12.09375l4.765625 0q2.203125 0 3.390625 -1.171875q1.1875 -1.171875 1.1875 -3.09375q0 -1.9375 -1.1875 -3.109375q-1.1875 -1.1875 -3.390625 -1.1875l-4.765625 0l0 8.5625zm25.799019 12.625q-2.828125 0 -5.046875 -1.515625q-2.21875 -1.515625 -3.46875 -4.21875q-1.25 -2.703125 -1.25 -6.125q0 -3.4375 1.25 -6.15625q1.25 -2.71875 3.46875 -4.234375q2.21875 -1.515625 5.046875 -1.515625q2.84375 0 5.046875 1.515625q2.21875 1.515625 3.46875 4.234375q1.25 2.71875 1.25 6.1875q0 3.4375 -1.25 6.125q-1.25 2.671875 -3.46875 4.1875q-2.203125 1.515625 -5.046875 1.515625zm0 -2.296875q2.078125 0 3.71875 -1.21875q1.65625 -1.21875 2.578125 -3.390625q0.9375 -2.1875 0.9375 -4.953125q0 -2.765625 -0.9375 -4.96875q-0.921875 -2.203125 -2.578125 -3.4375q-1.640625 -1.234375 -3.71875 -1.234375q-2.0625 0 -3.71875 1.234375q-1.640625 1.234375 -2.578125 3.4375q-0.9375 2.203125 -0.9375 4.96875q0 2.765625 0.9375 4.953125q0.9375 2.171875 2.578125 3.390625q1.65625 1.21875 3.71875 1.21875zm14.27446 -20.96875l5.625 0q3.5 0 6.03125 1.359375q2.53125 1.34375 3.859375 3.921875q1.34375 2.5625 1.34375 6.125q0 5.328125 -2.96875 8.328125q-2.96875 3.0 -8.265625 3.0l-5.625 0l0 -22.734375zm5.5625 20.46875q4.0625 0 6.359375 -2.234375q2.296875 -2.234375 2.296875 -6.828125q0 -4.640625 -2.296875 -6.875q-2.296875 -2.234375 -6.359375 -2.234375l-3.0625 0l0 18.171875l3.0625 0zm24.191406 2.796875q-4.203125 0 -6.296875 -2.28125q-2.09375 -2.28125 -2.09375 -6.6875l0 -14.296875l2.5 0l0 14.296875q0 6.703125 5.890625 6.703125q2.671875 0 4.21875 -1.734375q1.546875 -1.734375 1.546875 -4.96875l0 -14.296875l2.5 0l0 14.296875q0 4.34375 -2.1875 6.65625q-2.171875 2.3125 -6.078125 2.3125zm22.027771 0q-2.859375 0 -4.953125 -1.40625q-2.078125 -1.421875 -3.203125 -4.0625q-1.109375 -2.65625 -1.109375 -6.359375q0 -3.734375 1.078125 -6.40625q1.09375 -2.6875 3.109375 -4.109375q2.015625 -1.421875 4.78125 -1.421875q2.828125 0 4.84375 1.25q2.015625 1.25 3.15625 3.515625l-2.0 1.171875q-1.0625 -1.96875 -2.5 -2.8125q-1.4375 -0.859375 -3.5 -0.859375q-2.96875 0 -4.65625 2.5625q-1.671875 2.546875 -1.671875 7.078125q0 2.96875 0.765625 5.140625q0.765625 2.15625 2.1875 3.3125q1.4375 1.140625 3.34375 1.140625q2.359375 0 3.671875 -1.046875q1.328125 -1.046875 2.453125 -3.28125l2.109375 1.265625q-1.203125 2.59375 -3.1875 3.96875q-1.984375 1.359375 -4.71875 1.359375zm11.710358 -0.53125l0 -22.734375l12.71875 0l0 2.109375l-10.234375 0l0 7.921875l8.0 0l0 2.03125l-8.0 0l0 8.609375l10.34375 0l0 2.0625l-12.828125 0zm29.514008 0l-5.765625 -10.03125l-4.5 0l0 10.03125l-2.484375 0l0 -22.734375l7.59375 0q2.0625 0 3.625 0.8125q1.578125 0.796875 2.40625 2.25q0.828125 1.4375 0.828125 3.3125q0 2.265625 -1.375 3.890625q-1.359375 1.609375 -3.625 2.171875l5.9375 10.296875l-2.640625 0zm-10.265625 -12.09375l4.765625 0q2.203125 0 3.390625 -1.171875q1.1875 -1.171875 1.1875 -3.09375q0 -1.9375 -1.1875 -3.109375q-1.1875 -1.1875 -3.390625 -1.1875l-4.765625 0l0 8.5625zm24.439636 12.625q-2.5 0 -4.875 -1.25q-2.359375 -1.25 -3.921875 -3.375l2.03125 -1.8125q1.203125 1.90625 3.0625 3.03125q1.875 1.109375 4.03125 1.109375q2.375 0 3.59375 -1.046875q1.234375 -1.046875 1.234375 -2.859375q0 -1.953125 -1.3125 -3.0q-1.3125 -1.0625 -4.1875 -1.859375q-7.1875 -1.765625 -7.1875 -6.53125q0 -2.96875 1.921875 -4.5625q1.9375 -1.609375 5.375 -1.609375q2.5 0 4.484375 0.9375q1.984375 0.9375 3.546875 2.859375l-1.96875 1.671875q-1.203125 -1.625 -2.640625 -2.40625q-1.421875 -0.796875 -3.421875 -0.796875q-2.09375 0 -3.4375 0.984375q-1.328125 0.984375 -1.328125 2.6875q0 1.734375 1.234375 2.75q1.234375 1.015625 4.15625 1.71875q3.46875 0.9375 5.390625 2.578125q1.921875 1.625 1.921875 4.578125q0 1.84375 -0.9375 3.25q-0.9375 1.390625 -2.6875 2.171875q-1.75 0.78125 -4.078125 0.78125z" fill-rule="nonzero"/><path fill="#000000" fill-opacity="0.0" d="m239.55643 497.7953c54.573944 -13.601074 219.14612 -81.60632 327.44357 -81.60632c108.297485 0 268.61768 68.00525 322.3412 81.60632" fill-rule="evenodd"/><path stroke="#000000" stroke-width="4.0" stroke-linejoin="round" stroke-linecap="butt" d="m239.55643 497.7953c54.573914 -13.601074 219.14612 -81.60632 327.44357 -81.60632c54.14868 0 121.30316 17.001312 181.6358 35.70276c30.166382 9.350739 58.62726 19.126495 82.9043 27.414612c12.13855 4.1440735 23.23108 7.91626 32.967834 11.077454c0.6086426 0.19754028 1.211853 0.3927307 1.8097534 0.58547974l0.013427734 0.004333496" fill-rule="evenodd"/><path fill="#000000" stroke="#000000" stroke-width="4.0" stroke-linecap="butt" d="m864.4532 497.308l19.281616 -1.1748352l-15.525757 -11.494019z" fill-rule="evenodd"/><path fill="#000000" fill-opacity="0.0" d="m769.9925 560.0174c-11.220459 -31.961914 -85.17413 -159.8097 -67.322815 -191.77164c17.851257 -31.961945 145.3587 0 174.43042 0" fill-rule="evenodd"/><path stroke="#000000" stroke-width="4.0" stroke-linejoin="round" stroke-linecap="butt" d="m769.99243 560.01746c-11.220459 -31.961975 -85.17407 -159.80972 -67.322815 -191.77167c8.92572 -15.980988 45.26532 -15.980988 83.00757 -11.985748c18.871155 1.9976196 38.092896 4.994049 54.41388 7.4911194c4.0802 0.62420654 7.979126 1.2172546 11.645996 1.7556763l1.4957886 0.21740723" fill-rule="evenodd"/><path fill="#000000" stroke="#000000" stroke-width="4.0" stroke-linecap="butt" d="m852.53876 372.2946l18.746094 -4.6631775l-17.357788 -8.477539z" fill-rule="evenodd"/><path fill="#000000" fill-opacity="0.0" d="m772.0341 561.03937c-37.912964 -27.541992 -148.76202 -130.73972 -227.47766 -165.25195c-78.7157 -34.512268 -204.01358 -34.851288 -244.81631 -41.821533" fill-rule="evenodd"/><path stroke="#000000" stroke-width="4.0" stroke-linejoin="round" stroke-linecap="butt" d="m772.0341 561.03937c-37.912964 -27.541992 -148.76202 -130.73972 -227.47766 -165.25195c-39.35788 -17.256165 -90.36124 -25.968964 -136.62552 -31.239014c-23.132141 -2.6350708 -45.079468 -4.409363 -63.793976 -5.960602c-4.6786194 -0.38781738 -9.155182 -0.76168823 -13.397705 -1.1315613c-2.1212769 -0.18496704 -4.184021 -0.36889648 -6.1842346 -0.55307007l-0.98410034 -0.0921936" fill-rule="evenodd"/><path fill="#000000" stroke="#000000" stroke-width="4.0" stroke-linecap="butt" d="m324.35416 350.25064l-18.807617 4.4084473l17.24115 8.712219z" fill-rule="evenodd"/><path fill="#000000" fill-opacity="0.0" d="m299.74014 369.19238c58.38922 8.783234 291.3516 74.6568 350.3353 52.69931c58.983643 -21.957489 2.972229 -153.70349 3.5667114 -184.44418" fill-rule="evenodd"/><path stroke="#000000" stroke-width="4.0" stroke-linejoin="round" stroke-linecap="butt" d="m299.74014 369.19238c58.38925 8.783203 291.35165 74.65677 350.3353 52.69931c29.491821 -10.978729 30.234863 -49.404602 23.67926 -88.928406c-3.277771 -19.761871 -8.380249 -39.79825 -12.626038 -56.81543c-1.0614624 -4.2542725 -2.069397 -8.319885 -2.9819336 -12.145325c-0.22808838 -0.95635986 -0.45025635 -1.8977051 -0.6657715 -2.8232422l-0.009155273 -0.03930664" fill-rule="evenodd"/><path fill="#000000" stroke="#000000" stroke-width="4.0" stroke-linecap="butt" d="m663.99414 260.08572l-9.418884 -16.86554l-3.6256714 18.97406z" fill-rule="evenodd"/><path fill="#000000" fill-opacity="0.0" d="m460.90976 169.3307c-70.04462 7.140869 -349.20297 -2.718277 -420.2677 42.845154c-71.06474 45.56343 -20.401575 170.86131 -6.120735 230.53542c14.280838 59.674103 76.50481 106.25766 91.80577 127.509186" fill-rule="evenodd"/><path stroke="#000000" stroke-width="4.0" stroke-linejoin="round" stroke-linecap="butt" d="m460.9098 169.3307c-70.04465 7.140854 -349.203 -2.718277 -420.26773 42.845154c-71.06474 45.56343 -20.401577 170.86134 -6.120735 230.53542c7.140419 29.837036 26.26662 56.40146 45.520336 78.163055c9.626862 10.880798 19.285606 20.560913 27.493935 28.848999l2.678749 2.710083" fill-rule="evenodd"/><path fill="#000000" stroke="#000000" stroke-width="4.0" stroke-linecap="butt" d="m105.31776 556.8691l17.08345 9.017578l-7.290306 -17.888916z" fill-rule="evenodd"/><path fill="#000000" fill-opacity="0.0" d="m882.19946 338.66348c-51.00348 -2.2103882 -208.94446 -13.092285 -306.021 -13.262451c-97.07654 -0.17016602 -230.36526 10.201233 -276.43832 12.241455" fill-rule="evenodd"/><path stroke="#000000" stroke-width="4.0" stroke-linejoin="round" stroke-linecap="butt" d="m882.19946 338.66348c-51.00354 -2.2103882 -208.9444 -13.092285 -306.021 -13.262451c-48.53827 -0.08508301 -106.12958 2.4652405 -157.34546 5.2918396c-25.60794 1.4132996 -49.62204 2.8956604 -70.11368 4.1522217c-5.122925 0.31414795 -10.025696 0.6141968 -14.678162 0.8955078c-2.3262634 0.140625 -4.589905 0.27661133 -6.787262 0.40731812l-3.5482178 0.20874023" fill-rule="evenodd"/><path fill="#000000" stroke="#000000" stroke-width="4.0" stroke-linecap="butt" d="m323.3517 329.7592l-17.772339 7.5700073l18.480286 5.624878z" fill-rule="evenodd"/></g></svg>